<?xml version="1.0" encoding="utf-8"?>
<!-- Generator: Adobe Illustrator 21.1.0, SVG Export Plug-In . SVG Version: 6.00 Build 0)  -->
<svg version="1.1" id="Слой_1" xmlns="http://www.w3.org/2000/svg" xmlns:xlink="http://www.w3.org/1999/xlink" x="0px" y="0px"
	 viewBox="0 0 16 16" style="enable-background:new 0 0 16 16;" xml:space="preserve">
<style type="text/css">
	.st0{fill:#FEFEFE;}
	.st1{fill:#2B2A28;}
</style>
<g>
	<g>
		<rect class="st0" width="16" height="16"/>
	</g>
	<g>
		<path class="st1" d="M5,3.4c-0.8,0-1.3,0.8-1.2,1.8c0.1,1.1,0.9,1.9,1.7,2c0.8,0,1.3-0.8,1.2-1.9C6.6,4.3,5.8,3.4,5,3.4z"/>
		<path class="st1" d="M5.4,9.3c-1.2,0-2.3,0.7-2.3,1.6s0.9,1.7,2.1,1.7c1.7,0,2.3-0.7,2.3-1.6c0-0.1,0-0.2,0-0.3
			c-0.1-0.5-0.6-0.8-1.3-1.2C6,9.3,5.7,9.3,5.4,9.3z"/>
		<path class="st1" d="M0,0v16h16V0H0z M7.9,5.3C7.9,6,7.5,6.5,7,6.9S6.4,7.5,6.4,7.8s0.5,0.8,0.8,1c0.8,0.6,1.1,1.1,1.1,2
			c0,1.1-1.1,2.3-3.1,2.3c-1.7,0-3.2-0.7-3.2-1.8C2,10.1,3.3,9,5.1,9c0.2,0,0.4,0,0.5,0C5.4,8.7,5.2,8.4,5.2,8.1
			c0-0.2,0.1-0.4,0.2-0.6c-0.1,0-0.2,0-0.3,0c-1.4,0-2.4-1-2.4-2.3C2.7,4,4,2.9,5.4,2.9c0.8,0,3.1,0,3.1,0L7.8,3.5h-1
			C7.5,3.7,7.9,4.5,7.9,5.3z M14,5.5h-2.1v2h-0.5v-2h-2V5h2V3h0.5v2H14V5.5z"/>
	</g>
</g>
</svg>
