<svg xmlns="http://www.w3.org/2000/svg" viewBox="0 0 512 478.37"><defs><style>.cls-1{fill:#fefefe;}</style></defs><title>Ресурс 1</title><g id="Слой_2" data-name="Слой 2"><g id="Layer_1" data-name="Layer 1"><path class="cls-1" d="M511.61,180.79a7.56,7.56,0,0,0-.47-2.6A13.07,13.07,0,0,0,506,170.9L432.69,120V65.34a13.11,13.11,0,0,0-13.11-13.11H335.26L263.52,2.35a13.1,13.1,0,0,0-14.93,0l-72.21,49.9h-84A13.11,13.11,0,0,0,79.31,65.34v54L5.67,170.21A13.08,13.08,0,0,0,0,180.81c0,.08,0,.15,0,.23L.39,465.28A13.11,13.11,0,0,0,13.5,478.37h0l485.39-.67A13.11,13.11,0,0,0,512,464.57Zm-78.92-28.89L474.59,181l-41.9,29.13ZM256,29.07l33.31,23.16H222.51ZM105.54,78.45H406.47V228.37l-101,70.24-41.19-32-.18-.13a13.1,13.1,0,0,0-15.89.13l-41.49,32.18L105.54,229ZM79.31,151.19v59.64L36.17,181ZM26.26,206.05,184.93,315.71,26.58,438.53Zm25.62,246L256.2,293.61,459.79,451.53ZM327.14,315.46l158.28-110,.32,233.06Z"/><path class="cls-1" d="M344.77,130.9H167.23a13.11,13.11,0,1,0,0,26.22H344.77a13.11,13.11,0,0,0,0-26.22Z"/><path class="cls-1" d="M344.77,199.08H167.23a13.11,13.11,0,0,0,0,26.22H344.77a13.11,13.11,0,0,0,0-26.22Z"/></g></g></svg>