<?xml version="1.0" encoding="utf-8"?>
<!-- Generator: Adobe Illustrator 21.1.0, SVG Export Plug-In . SVG Version: 6.00 Build 0)  -->
<svg version="1.1" id="Слой_1" xmlns="http://www.w3.org/2000/svg" xmlns:xlink="http://www.w3.org/1999/xlink" x="0px" y="0px"
	 viewBox="0 0 296.3 430.1" style="enable-background:new 0 0 296.3 430.1;" xml:space="preserve">
<style type="text/css">
	.st0{fill:#2B2A29;}
	.st1{fill:#FEFEFE;}
</style>
<title>map</title>
<rect class="st0" width="296.3" height="430.1"/>
<g id="Слой_2">
	<g id="Capa_1">
		<path id="Facebook_Places" class="st1" d="M289.3,107.1c-1.5-5.7-4.6-11.8-6.9-17.2C254.8,23.7,194.7,0,146.1,0
			C81.2,0,9.6,43.6,0,133.4v18.4c0,0.8,0.3,7.6,0.6,11.1C6,205.7,39.8,251.2,65,294c27.2,45.9,55.3,91,83.2,136.1
			c17.2-29.4,34.4-59.3,51.2-87.9c4.6-8.4,9.9-16.8,14.5-24.9c3.1-5.4,8.9-10.7,11.6-15.7c27.1-49.7,70.8-99.8,70.8-149.1v-20.3
			C296.3,126.9,289.7,108.2,289.3,107.1z M147.3,199.2c-19.1,0-40-9.6-50.3-35.9c-1.5-4.2-1.4-12.6-1.4-13.4V138
			c0-33.6,28.6-48.9,53.4-48.9c30.6,0,54.2,24.5,54.2,55.1S177.9,199.2,147.3,199.2L147.3,199.2z"/>
	</g>
</g>
<rect x="223" y="190.5" class="st1" width="2.5" height="2.5"/>
</svg>
