<?xml version="1.0" encoding="utf-8"?>
<!-- Generator: Adobe Illustrator 21.1.0, SVG Export Plug-In . SVG Version: 6.00 Build 0)  -->
<svg version="1.1" id="Слой_1" xmlns="http://www.w3.org/2000/svg" xmlns:xlink="http://www.w3.org/1999/xlink" x="0px" y="0px"
	 viewBox="0 0 512 512" style="enable-background:new 0 0 512 512;" xml:space="preserve">
<style type="text/css">
	.st0{fill:#FEFEFE;}
	.st1{fill:#2B2A29;stroke:#FEFEFE;stroke-width:5;stroke-miterlimit:10;}
</style>
<title>vk-main</title>
<rect class="st0" width="512" height="512"/>
<g id="Слой_2">
	<g id="Layer_1">
		<path class="st1" d="M0,0v512h512V0H0z M383.8,283.3c11.8,11.5,24.2,22.3,34.7,34.9c4.8,5.5,9,11.5,12.4,17.9
			c4.8,9.3,0.5,19.5-7.9,20h-51.6c-13.3,1.1-23.9-4.3-32.9-13.4c-7.1-7.3-13.8-15-20.6-22.5c-2.7-3.1-5.8-5.9-9.3-8.3
			c-7-4.6-13.2-3.2-17.2,4.2s-5.1,15.8-5.4,24.1c-0.6,12.2-4.2,15.3-16.4,15.9c-26.1,1.2-50.9-2.8-73.9-15.9
			c-20.3-11.6-36-28-49.7-46.5c-26.7-36.1-47.1-75.8-65.5-116.6c-4.2-9.2-1.1-14.1,9-14.3c16.9-0.3,33.7-0.3,50.6,0
			c6.9,0.1,11.4,4,14,10.5c8.9,22.4,20.4,43.7,34.3,63.5c3.7,5.3,7.6,10.5,12.9,14.2c6,4.1,10.6,2.8,13.4-3.9
			c1.7-4.3,2.7-8.7,3-13.3c1.3-15.6,1.5-31.1-0.8-46.7c-1.4-9.7-6.9-16-16.6-17.8c-4.9-0.9-4.2-2.8-1.8-5.6
			c4.2-4.9,8.1-7.9,15.9-7.9h58.3c9.2,1.8,11.3,5.9,12.5,15.2v64.8c-0.1,3.6,1.8,14.2,8.2,16.6c5.1,1.7,8.6-2.4,11.7-5.7
			c14-14.8,23.9-32.4,32.9-50.5c3.9-8,7.4-16.3,10.7-24.6c2.4-6.1,6.3-9.2,13.2-9l56.2,0.1c1.7,0,3.3,0,5,0.3c9.5,1.6,12,5.7,9.1,15
			c-4.6,14.5-13.6,26.6-22.3,38.7c-9.4,13-19.4,25.5-28.7,38.5C372.6,266.9,373.2,272.9,383.8,283.3z"/>
	</g>
</g>
</svg>
